<?xml version="1.0" encoding="iso-8859-1"?>
<!-- Generator: Adobe Illustrator 19.0.0, SVG Export Plug-In . SVG Version: 6.00 Build 0)  -->
<svg version="1.1" id="Capa_1" xmlns="http://www.w3.org/2000/svg" xmlns:xlink="http://www.w3.org/1999/xlink" x="0px" y="0px"
	 viewBox="0 0 480 480" style="enable-background:new 0 0 480 480;" xml:space="preserve">
<polygon style="fill:#DD3232;" points="248,264 248,296 336,328 336,392 336,472 384,424 384,328 472,296 472,232 360,232 248,232 
	"/>
<polygon style="fill:#086788;" points="216,136 216,200 216,264 216,328 216,392 336,392 336,328 248,296 248,264 248,232 360,232 
	360,200 360,136 360,72 360,8 216,8 216,72 "/>
<polygon style="fill:#06AED5;" points="216,328 216,264 216,200 216,136 216,72 216,8 8,8 8,72 8,136 8,200 8,264 8,328 8,392 
	216,392 "/>
<g>
	<path style="fill:#242A40;" d="M8,400h208h112v72c0,3.232,1.944,6.152,4.936,7.392C333.928,479.8,334.968,480,336,480
		c2.08,0,4.128-0.816,5.656-2.344l48-48C391.16,428.16,392,426.12,392,424v-90.4l82.736-30.08c3.16-1.152,5.264-4.16,5.264-7.52v-64
		c0-4.416-3.576-8-8-8H368v-24v-64V72V8c0-4.416-3.576-8-8-8H216H8C3.576,0,0,3.584,0,8v64v64v64v64v64v64
		C0,396.416,3.576,400,8,400z M245.264,303.52L290.592,320H224v-48h16v24C240,299.36,242.104,302.368,245.264,303.52z M16,272h192
		v48H16V272z M16,208h192v48H16V208z M16,144h192v48H16V144z M224,144h128v48H224V144z M352,128H224V80h128V128z M208,128H16V80h192
		V128z M16,336h192v48H16V336z M224,384v-48h104v16h-80v16h80v16H224z M464,290.4l-82.736,30.08c-3.16,1.152-5.264,4.16-5.264,7.52
		v92.688l-32,32V392v-64c0-0.288-0.096-0.544-0.128-0.824c-0.04-0.36-0.08-0.704-0.168-1.056c-0.08-0.32-0.16-0.632-0.272-0.936
		c-0.088-0.24-0.208-0.456-0.32-0.688c-0.128-0.256-0.24-0.504-0.392-0.752c-0.224-0.352-0.496-0.656-0.768-0.968
		c-0.184-0.208-0.344-0.424-0.552-0.608c-0.128-0.12-0.24-0.248-0.376-0.36c-0.424-0.344-0.92-0.592-1.416-0.848
		c-0.232-0.12-0.432-0.272-0.672-0.368c-0.072-0.032-0.128-0.088-0.208-0.112L256,290.4V264v-24h104h104V290.4z M248,224
		c-4.424,0-8,3.584-8,8v24h-16v-48h128v16H248z M352,64H224V16h128V64z M16,16h192v48H16V16z"/>
	<rect x="40" y="32" style="fill:#242A40;" width="144" height="16"/>
	<rect x="248" y="32" style="fill:#242A40;" width="80" height="16"/>
	<rect x="40" y="96" style="fill:#242A40;" width="144" height="16"/>
	<rect x="248" y="96" style="fill:#242A40;" width="80" height="16"/>
	<rect x="40" y="160" style="fill:#242A40;" width="144" height="16"/>
	<rect x="248" y="160" style="fill:#242A40;" width="80" height="16"/>
	<rect x="40" y="224" style="fill:#242A40;" width="144" height="16"/>
	<rect x="40" y="288" style="fill:#242A40;" width="144" height="16"/>
	<rect x="40" y="352" style="fill:#242A40;" width="144" height="16"/>
	<rect x="72" y="416" style="fill:#242A40;" width="16" height="16"/>
	<rect x="72" y="448" style="fill:#242A40;" width="16" height="16"/>
	<rect x="104" y="448" style="fill:#242A40;" width="16" height="16"/>
	<rect x="136" y="448" style="fill:#242A40;" width="16" height="16"/>
	<rect x="168" y="448" style="fill:#242A40;" width="16" height="16"/>
	<rect x="200" y="448" style="fill:#242A40;" width="16" height="16"/>
	<rect x="232" y="448" style="fill:#242A40;" width="16" height="16"/>
	<rect x="264" y="448" style="fill:#242A40;" width="16" height="16"/>
	<rect x="296" y="448" style="fill:#242A40;" width="16" height="16"/>
	<rect x="448" y="192" style="fill:#242A40;" width="16" height="16"/>
	<rect x="448" y="160" style="fill:#242A40;" width="16" height="16"/>
	<rect x="448" y="128" style="fill:#242A40;" width="16" height="16"/>
	<rect x="448" y="96" style="fill:#242A40;" width="16" height="16"/>
	<rect x="448" y="64" style="fill:#242A40;" width="16" height="16"/>
	<rect x="384" y="64" style="fill:#242A40;" width="16" height="16"/>
	<rect x="416" y="64" style="fill:#242A40;" width="16" height="16"/>
</g>
<g>
</g>
<g>
</g>
<g>
</g>
<g>
</g>
<g>
</g>
<g>
</g>
<g>
</g>
<g>
</g>
<g>
</g>
<g>
</g>
<g>
</g>
<g>
</g>
<g>
</g>
<g>
</g>
<g>
</g>
</svg>
