<svg id="Capa_1" enable-background="new 0 0 511.835 511.835" height="512" viewBox="0 0 511.835 511.835" width="512" xmlns="http://www.w3.org/2000/svg"><g><g><g><path d="m372.151 504.417c11.947 0 21.631-9.685 21.631-21.631v-408.95c0-11.943-9.68-21.626-21.622-21.631h-249.437c-11.947 0-21.631 9.685-21.631 21.631v408.95c0 11.947 9.685 21.631 21.631 21.631z" fill="#f4e066"/><path d="m430.101 52.205h-63.286c11.947 0 21.631 9.685 21.631 21.631v408.95c0 11.946-9.685 21.631-21.631 21.631h63.286c11.947 0 21.631-9.685 21.631-21.631v-408.95c.001-11.946-9.684-21.631-21.631-21.631z" fill="#efd133"/><path d="m331.161 459.63c11.947 0 21.631-9.684 21.631-21.631v-408.95c0-11.94-9.674-21.621-21.612-21.631h-180.83c-3.129 0-6.167.694-8.96 1.969-1.413.645-2.36 2.02-2.36 3.573v56.157c0 9.516-7.714 17.23-17.23 17.23h-56.156c-1.553 0-2.944.925-3.589 2.338-1.275 2.793-1.953 5.852-1.953 8.981v340.333c0 11.947 9.685 21.631 21.631 21.631h307.378.02z" fill="#f7f4f7"/><path d="m389.111 7.417h-63.286c11.947 0 21.631 9.685 21.631 21.631v408.95c0 11.947-9.685 21.631-21.631 21.631h63.286c11.947 0 21.631-9.684 21.631-21.631v-408.949c.001-11.947-9.684-21.632-21.631-21.632z" fill="#edeaed"/><path d="m141.39 9.386c-2.332 1.063-4.489 2.52-6.336 4.367l-68.616 68.617c-1.847 1.847-3.304 4.003-4.367 6.336h62.089c9.516 0 17.229-7.714 17.229-17.229v-62.091z" fill="#c1bcc4"/><path d="m186.313 226.508v84.24h28.818v-100.679c0-2.766-3.153-4.35-5.372-2.699l-22.091 16.439c-.852.635-1.355 1.636-1.355 2.699z" fill="#f4e066"/><path d="m255.713 251.034v59.714h28.819v-76.89c0-2.799-3.219-4.374-5.428-2.656l-22.091 17.176c-.82.638-1.3 1.618-1.3 2.656z" fill="#badd93"/><path d="m325.113 196.999v113.749h28.819v-128.85c0-3.661-4.212-5.718-7.099-3.468l-20.423 15.916c-.819.637-1.297 1.616-1.297 2.653z" fill="#e07f84"/><path d="m116.913 310.748h28.819v-47.176c0-2.806-3.233-4.378-5.44-2.646l-22.091 17.332c-.813.638-1.287 1.613-1.287 2.646v29.844z" fill="#9bc4f9"/></g></g><g><g><path d="m121.551 219.155 90.053-69.74 38.124 34.251c5.104 4.59 12.752 4.868 18.18.666l76.38-59.152-2.051 16.879c-.499 4.111 2.429 7.85 6.541 8.35 4.129.5 7.852-2.443 8.35-6.541 3.934-32.48 4.252-34.581 4.27-35.482.075-4.289-3.431-7.711-7.639-7.635h-35.928c-4.143 0-7.5 3.357-7.5 7.5s3.357 7.5 7.5 7.5h14.135l-72.711 56.311-38.125-34.254c-5.105-4.585-12.75-4.865-18.179-.663l-90.583 70.151c-3.275 2.536-3.874 7.247-1.338 10.521 2.53 3.27 7.244 3.878 10.521 1.338z"/><path d="m372.658 303.229h-11.259v-121.306c0-9.887-11.386-15.477-19.207-9.383l-20.416 15.91c-2.66 2.073-4.186 5.196-4.186 8.568v106.211h-25.568v-69.364c0-9.023-10.385-14.13-17.53-8.575l-22.086 17.172c-2.664 2.074-4.192 5.199-4.192 8.574v52.193h-25.568v-93.146c0-8.926-10.183-14.043-17.348-8.714l-22.085 16.435c-2.74 2.04-4.376 5.298-4.376 8.713v21.76c0 4.143 3.357 7.5 7.5 7.5s7.5-3.357 7.5-7.5v-19.681l13.809-10.276v84.909h-13.809v-19.889c0-4.143-3.357-7.5-7.5-7.5s-7.5 3.357-7.5 7.5v19.889h-25.568v-39.66c0-9.058-10.438-14.134-17.568-8.546l-22.079 17.324c-2.645 2.072-4.161 5.188-4.161 8.549v22.333h-11.26c-4.143 0-7.5 3.357-7.5 7.5s3.357 7.5 7.5 7.5h274.457c4.143 0 7.5-3.357 7.5-7.5s-3.358-7.5-7.5-7.5zm-40.068-104.189 13.809-10.761v114.95h-13.809zm-69.377 54.02 13.809-10.736v60.906h-13.809zm-138.754 29.849 13.809-10.835v31.155h-13.809z"/><path d="m174.917 356.751h-76.716c-4.143 0-7.5 3.357-7.5 7.5s3.357 7.5 7.5 7.5h76.717c4.143 0 7.5-3.357 7.5-7.5s-3.358-7.5-7.501-7.5z"/><path d="m174.917 391.417h-76.716c-4.143 0-7.5 3.357-7.5 7.5s3.357 7.5 7.5 7.5h76.717c4.143 0 7.5-3.357 7.5-7.5s-3.358-7.5-7.501-7.5z"/><path d="m430.043 44.772h-11.853v-15.648c.001-16.059-13.065-29.124-29.123-29.124h-238.682c-8.127 0-15.442 3.377-20.594 8.53-1.417 1.417 11.452-11.454-69.063 69.075-4.977 5.22-8.061 12.332-8.061 20.112v340.22c0 16.059 13.065 29.124 29.124 29.124h11.853v15.649c0 16.059 13.065 29.124 29.124 29.124h307.275c16.059 0 29.124-13.065 29.124-29.124v-408.814c0-16.058-13.065-29.124-29.124-29.124zm-296.115-19.165v45.93c0 5.361-4.362 9.724-9.724 9.724h-45.93zm310.239 457.104c0 7.788-6.336 14.124-14.124 14.124h-307.275c-7.788 0-14.124-6.336-14.124-14.124v-15.649h280.423c16.059 0 29.124-13.065 29.124-29.124v-27.776c0-4.143-3.357-7.5-7.5-7.5s-7.5 3.357-7.5 7.5v27.776c0 7.788-6.336 14.124-14.124 14.124h-307.275c-7.788 0-14.124-6.336-14.124-14.124v-340.22c0-.49.025-.976.074-1.457h56.463c13.633 0 24.724-11.091 24.724-24.724v-56.463c1.372-.141-9.894-.048 240.139-.074 7.788 0 14.124 6.336 14.124 14.124v345.975c0 4.143 3.357 7.5 7.5 7.5s7.5-3.357 7.5-7.5v-315.327h11.853c7.788 0 14.124 6.336 14.124 14.124v408.815z"/></g></g></g></svg>