<svg id="Layer_1_1_" enable-background="new 0 0 64 64" height="512" viewBox="0 0 64 64" width="512" xmlns="http://www.w3.org/2000/svg"><path d="m3 3h43v14h-43z" fill="#50b6cf"/><path d="m3 47h43v14h-43z" fill="#3cadc9"/><path d="m3 17h43v15h-43z" fill="#3cadc9"/><path d="m3 32h43v15h-43z" fill="#50b6cf"/><path d="m46 3h15v14h-15z" fill="#f5a947"/><path d="m46 47h15v14h-15z" fill="#f09d3a"/><path d="m46 17h15v15h-15z" fill="#f09d3a"/><path d="m46 32h15v15h-15z" fill="#f5a947"/><g fill="#0d0f23"><path d="m61 2h-58c-.55225 0-1 .44775-1 1v58c0 .55225.44775 1 1 1h58c.55225 0 1-.44775 1-1v-58c0-.55225-.44775-1-1-1zm-1 14h-13v-12h13zm-15 17v13h-41v-13zm-41-2v-13h41v13zm43 2h13v13h-13zm0-2v-13h13v13zm-2-27v12h-41v-12zm-41 44h41v12h-41zm43 12v-12h13v12z"/><path d="m6 9h12v2h-12z"/><path d="m13 23h12v2h-12z"/><path d="m22 38h12v2h-12z"/><path d="m31 53h12v2h-12z"/><path d="m51.29297 13.70703c.19531.19531.45117.29297.70703.29297s.51172-.09766.70703-.29297l6-6-1.41406-1.41406-5.29297 5.29297-2.29297-2.29297-1.41406 1.41406z"/><path d="m57.29297 21.29297-5.29297 5.29297-2.29297-2.29297-1.41406 1.41406 3 3c.19531.19531.45117.29297.70703.29297s.51172-.09766.70703-.29297l6-6z"/><path d="m57.29297 36.29297-5.29297 5.29297-2.29297-2.29297-1.41406 1.41406 3 3c.19531.19531.45117.29297.70703.29297s.51172-.09766.70703-.29297l6-6z"/></g></svg>