<svg height="512" viewBox="0 0 512 512" width="512" xmlns="http://www.w3.org/2000/svg"><g><g><g><path d="m432 136h48v296h-48z" fill="#57565c"/><g fill="#e0e0e2"><path d="m480 104v32h-48v-32a24 24 0 0 1 48 0z"/><path d="m432 432h48v16l-24 48-24-48z"/></g></g><path d="m32 72v-56h352v400l-80 80h-272v-328z" fill="#ffeb99"/><path d="m304 496v-80h80" fill="#cca400"/><g fill="#ffda44"><path d="m72 280h64v64h-64z"/><path d="m176 280h64v64h-64z"/><path d="m280 280h64v64h-64z"/></g><path d="m72 96h272v112h-272z" fill="#e0e0e2"/></g><g><path d="m456 72a32.036 32.036 0 0 0 -32 32v64h-8v-16a8 8 0 0 0 -16 0v96a8 8 0 0 0 16 0v-64h8v264a8.081 8.081 0 0 0 .84 3.58l24 48a8.009 8.009 0 0 0 14.32 0l24-48a8.081 8.081 0 0 0 .84-3.58v-344a32.036 32.036 0 0 0 -32-32zm16 374.11-16 32-16-32v-6.11h32zm0-22.11h-32v-280h32zm0-296h-32v-24a16 16 0 0 1 32 0z"/><path d="m384 8h-352a8 8 0 0 0 -8 8v480a8 8 0 0 0 8 8h272a8.008 8.008 0 0 0 5.66-2.34l80-80a8.008 8.008 0 0 0 2.34-5.66v-400a8 8 0 0 0 -8-8zm-72 468.69v-52.69h52.69zm64-68.69h-72a8 8 0 0 0 -8 8v72h-256v-464h336z"/><path d="m72 56h88a8 8 0 0 0 0-16h-88a8 8 0 0 0 0 16z"/><path d="m72 80h24a8 8 0 0 0 0-16h-24a8 8 0 0 0 0 16z"/><path d="m136 272h-64a8 8 0 0 0 -8 8v64a8 8 0 0 0 8 8h64a8 8 0 0 0 8-8v-64a8 8 0 0 0 -8-8zm-8 64h-48v-48h48z"/><path d="m240 272h-64a8 8 0 0 0 -8 8v64a8 8 0 0 0 8 8h64a8 8 0 0 0 8-8v-64a8 8 0 0 0 -8-8zm-8 64h-48v-48h48z"/><path d="m344 272h-64a8 8 0 0 0 -8 8v64a8 8 0 0 0 8 8h64a8 8 0 0 0 8-8v-64a8 8 0 0 0 -8-8zm-8 64h-48v-48h48z"/><path d="m72 216h272a8 8 0 0 0 8-8v-112a8 8 0 0 0 -8-8h-272a8 8 0 0 0 -8 8v112a8 8 0 0 0 8 8zm8-112h256v96h-256z"/><path d="m120 64a8 8 0 0 0 0 16h8a8 8 0 0 0 0-16z"/><path d="m72 240h272a8 8 0 0 0 0-16h-272a8 8 0 0 0 0 16z"/><path d="m264 248h-192a8 8 0 0 0 0 16h192a8 8 0 0 0 0-16z"/><path d="m296 264a8 8 0 0 0 0-16h-8a8 8 0 0 0 0 16z"/><path d="m136 360h-64a8 8 0 0 0 0 16h64a8 8 0 0 0 0-16z"/><path d="m136 384h-64a8 8 0 0 0 0 16h64a8 8 0 0 0 0-16z"/><path d="m136 408h-64a8 8 0 0 0 0 16h64a8 8 0 0 0 0-16z"/><path d="m240 360h-64a8 8 0 0 0 0 16h64a8 8 0 0 0 0-16z"/><path d="m240 384h-64a8 8 0 0 0 0 16h64a8 8 0 0 0 0-16z"/><path d="m240 408h-64a8 8 0 0 0 0 16h64a8 8 0 0 0 0-16z"/><path d="m344 360h-64a8 8 0 0 0 0 16h64a8 8 0 0 0 0-16z"/><path d="m344 400a8 8 0 0 0 0-16h-64a8 8 0 0 0 0 16z"/></g></g></svg>