<svg height="512" viewBox="0 0 64 64" width="512" xmlns="http://www.w3.org/2000/svg"><g id="Goal-calendar-mouse-target-date"><path d="m3 15h38a0 0 0 0 1 0 0v28a2 2 0 0 1 -2 2h-34a2 2 0 0 1 -2-2v-28a0 0 0 0 1 0 0z" fill="#fee9ab"/><path d="m41 15v28a2.006 2.006 0 0 1 -2 2h-4a2.006 2.006 0 0 0 2-2v-28z" fill="#ffd422"/><path d="m61 51v6a4 4 0 0 1 -4 4h-4a4 4 0 0 1 -4-4v-6z" fill="#c6c5ca"/><path d="m61 49v2h-6v-6h2a4 4 0 0 1 4 4z" fill="#ff7956"/><path d="m61 51v6a4 4 0 0 1 -4 4h-3a4 4 0 0 0 4-4v-6z" fill="#898890"/><path d="m61 49v2h-3v-2a3.992 3.992 0 0 0 -3-3.87v-.13h2a4 4 0 0 1 4 4z" fill="#ff5023"/><circle cx="55" cy="9" fill="#c6c5ca" r="6"/><path d="m61 9a6 6 0 0 1 -6 6 6.164 6.164 0 0 1 -1.5-.19 5.994 5.994 0 0 0 0-11.61 5.715 5.715 0 0 1 1.5-.2 6 6 0 0 1 6 6z" fill="#898890"/><circle cx="55" cy="9" fill="#ff3051" r="2"/><path d="m55 45v6h-6v-2a4 4 0 0 1 4-4z" fill="#fee9ab"/><path d="m43 26a11.007 11.007 0 1 1 -2-6.32 10.9 10.9 0 0 1 2 6.32z" fill="#ff3051"/><path d="m43 26a11.007 11.007 0 0 1 -11 11 11.021 11.021 0 0 1 -2-.18 11 11 0 0 0 0-21.64 11.024 11.024 0 0 1 11 4.5 10.9 10.9 0 0 1 2 6.32z" fill="#cd2a00"/><path d="m41 9v10.68a10.984 10.984 0 0 0 -9-4.68h-29v-6a2.006 2.006 0 0 1 2-2h34a2.006 2.006 0 0 1 2 2z" fill="#ff7956"/><path d="m41 9v10.68a10.974 10.974 0 0 0 -4-3.47v-7.21a2.006 2.006 0 0 0 -2-2h4a2.006 2.006 0 0 1 2 2z" fill="#ff5023"/><circle cx="32" cy="26" fill="#c6c5ca" r="7"/><path d="m39 26a7.008 7.008 0 0 1 -7 7 7.41 7.41 0 0 1 -1.5-.16 7 7 0 0 0 0-13.68 7.41 7.41 0 0 1 1.5-.16 7.008 7.008 0 0 1 7 7z" fill="#898890"/><path d="m35 5v4a2 2 0 0 1 -4 0v-4a2.006 2.006 0 0 1 2-2 2.015 2.015 0 0 1 2 2z" fill="#898890"/><path d="m35 5v4a2 2 0 0 1 -3 1.73 2 2 0 0 0 1-1.73v-4a1.955 1.955 0 0 0 -.59-1.41 1.813 1.813 0 0 0 -.41-.32 2 2 0 0 1 1-.27 2.015 2.015 0 0 1 2 2z" fill="#57565c"/><circle cx="32" cy="26" fill="#ff3051" r="3"/><path d="m24 5v4a2 2 0 0 1 -4 0v-4a2.006 2.006 0 0 1 2-2 2.015 2.015 0 0 1 2 2z" fill="#898890"/><path d="m15 37h4v4h-4z" fill="#ff3051"/><path d="m15 28h4v4h-4z" fill="#bdfdff"/><path d="m15 19h4v4h-4z" fill="#9cdd05"/><circle cx="9" cy="55" fill="#c6c5ca" r="6"/><path d="m13 5v4a2 2 0 0 1 -4 0v-4a2.006 2.006 0 0 1 2-2 2.015 2.015 0 0 1 2 2z" fill="#898890"/><path d="m7 37h4v4h-4z" fill="#9cdd05"/><path d="m7 28h4v4h-4z" fill="#bdfdff"/><path d="m7 19h4v4h-4z" fill="#ff3051"/><circle cx="9" cy="55" fill="#ff3051" r="2"/><path d="m24 5v4a2 2 0 0 1 -3 1.73 2 2 0 0 0 1-1.73v-4a1.955 1.955 0 0 0 -.59-1.41 1.813 1.813 0 0 0 -.41-.32 2 2 0 0 1 1-.27 2.015 2.015 0 0 1 2 2z" fill="#57565c"/><path d="m13 5v4a2 2 0 0 1 -3 1.73 2 2 0 0 0 1-1.73v-4a1.955 1.955 0 0 0 -.59-1.41 1.813 1.813 0 0 0 -.41-.32 2 2 0 0 1 1-.27 2.015 2.015 0 0 1 2 2z" fill="#57565c"/><path d="m15 55a6 6 0 0 1 -6 6 6.164 6.164 0 0 1 -1.5-.19 5.994 5.994 0 0 0 0-11.61 5.715 5.715 0 0 1 1.5-.2 6 6 0 0 1 6 6z" fill="#898890"/><path d="m9 48a7 7 0 1 0 7 7 7.008 7.008 0 0 0 -7-7zm0 12a5 5 0 1 1 5-5 5.006 5.006 0 0 1 -5 5z"/><path d="m9 52a3 3 0 1 0 3 3 3 3 0 0 0 -3-3zm0 4a1 1 0 1 1 1-1 1 1 0 0 1 -1 1z"/><path d="m57.293 22.293-3 3a1 1 0 0 0 0 1.414l3 3 1.414-1.414-2.293-2.293 2.293-2.293z"/><path d="m57 44h-1v-1a3.009 3.009 0 0 0 -3-3h-6a3.009 3.009 0 0 0 -3 3v4a1 1 0 0 1 -1 1h-10v-2h6a3.009 3.009 0 0 0 3-3v-10.38a11.9 11.9 0 0 0 1.95-5.62h5.64l2.7 2.71 1.42-1.42-2.3-2.29 2.3-2.29-1.42-1.42-2.7 2.71h-5.64a11.9 11.9 0 0 0 -1.95-5.62v-10.38a3.009 3.009 0 0 0 -3-3h-3v-1a3 3 0 0 0 -6 0v1h-5v-1a3 3 0 0 0 -6 0v1h-5v-1a3 3 0 0 0 -6 0v1h-3a3.009 3.009 0 0 0 -3 3v34a3.009 3.009 0 0 0 3 3h26v3a1 1 0 0 0 1 1h11a3.009 3.009 0 0 0 3-3v-4a1 1 0 0 1 1-1h6a1 1 0 0 1 1 1v1h-1a5 5 0 0 0 -5 5v8a5 5 0 0 0 5 5h4a5 5 0 0 0 5-5v-8a5 5 0 0 0 -5-5zm-17-1a1 1 0 0 1 -1 1h-6v-6.05a11.91 11.91 0 0 0 7-3.03zm-8-38a1 1 0 0 1 2 0v4a1 1 0 0 1 -2 0zm-11 0a1 1 0 0 1 2 0v4a1 1 0 0 1 -2 0zm-11 0a1 1 0 0 1 2 0v4a1 1 0 0 1 -2 0zm-6 4a1 1 0 0 1 1-1h3v1a3 3 0 0 0 6 0v-1h5v1a3 3 0 0 0 6 0v-1h5v1a3 3 0 0 0 6 0v-1h3a1 1 0 0 1 1 1v8.08a11.929 11.929 0 0 0 -8-3.08h-28zm27 35h-26a1 1 0 0 1 -1-1v-27h21.38a11.988 11.988 0 0 0 5.62 21.95zm-9-18a10 10 0 0 1 19.95-1h-2.02a8 8 0 1 0 0 2h2.02a10 10 0 0 1 -19.95-1zm11.72 1a2 2 0 1 1 0-2h-1.72v2zm-1.72-5a4 4 0 1 0 3.86 5h2.05a6 6 0 1 1 0-2h-2.05a4 4 0 0 0 -3.86-3zm18 27a3.009 3.009 0 0 1 3-3h1v4h-4zm10 8a3.009 3.009 0 0 1 -3 3h-4a3.009 3.009 0 0 1 -3-3v-5h10zm0-7h-4v-4h1a3.009 3.009 0 0 1 3 3z"/><path d="m11 18h-4a1 1 0 0 0 -1 1v4a1 1 0 0 0 1 1h4a1 1 0 0 0 1-1v-4a1 1 0 0 0 -1-1zm-1 4h-2v-2h2z"/><path d="m11 36h-4a1 1 0 0 0 -1 1v4a1 1 0 0 0 1 1h4a1 1 0 0 0 1-1v-4a1 1 0 0 0 -1-1zm-1 4h-2v-2h2z"/><path d="m11 27h-4a1 1 0 0 0 -1 1v4a1 1 0 0 0 1 1h4a1 1 0 0 0 1-1v-4a1 1 0 0 0 -1-1zm-1 4h-2v-2h2z"/><path d="m19 27h-4a1 1 0 0 0 -1 1v4a1 1 0 0 0 1 1h4a1 1 0 0 0 1-1v-4a1 1 0 0 0 -1-1zm-1 4h-2v-2h2z"/><path d="m15 24h4a1 1 0 0 0 1-1v-4a1 1 0 0 0 -1-1h-4a1 1 0 0 0 -1 1v4a1 1 0 0 0 1 1zm1-4h2v2h-2z"/><path d="m19 36h-4a1 1 0 0 0 -1 1v4a1 1 0 0 0 1 1h4a1 1 0 0 0 1-1v-4a1 1 0 0 0 -1-1zm-1 4h-2v-2h2z"/><path d="m55 16a7 7 0 1 0 -7-7 7.008 7.008 0 0 0 7 7zm0-12a5 5 0 1 1 -5 5 5.006 5.006 0 0 1 5-5z"/><path d="m55 12a3 3 0 1 0 -3-3 3 3 0 0 0 3 3zm0-4a1 1 0 1 1 -1 1 1 1 0 0 1 1-1z"/><path d="m18 48h2v2h-2z"/><path d="m22 48h6v2h-6z"/><path d="m18 54h2v2h-2z"/><path d="m22 54h6v2h-6z"/><path d="m18 60h2v2h-2z"/><path d="m22 60h6v2h-6z"/></g></svg>